<?xml version="1.0" encoding="utf-8"?>
<!-- Generator: Adobe Illustrator 16.0.0, SVG Export Plug-In . SVG Version: 6.00 Build 0)  -->
<!DOCTYPE svg PUBLIC "-//W3C//DTD SVG 1.1//EN" "http://www.w3.org/Graphics/SVG/1.1/DTD/svg11.dtd">
<svg version="1.1" id="Layer_1" xmlns="http://www.w3.org/2000/svg" xmlns:xlink="http://www.w3.org/1999/xlink" x="0px" y="0px"
	 width="30.72px" height="22.194px" viewBox="0 0 30.72 22.194" enable-background="new 0 0 30.72 22.194" xml:space="preserve">
<g>
	<defs>
		<rect id="SVGID_1_" y="0" width="30.72" height="22.194"/>
	</defs>
	<clipPath id="SVGID_2_">
		<use xlink:href="#SVGID_1_"  overflow="visible"/>
	</clipPath>
	<path clip-path="url(#SVGID_2_)" fill-rule="evenodd" clip-rule="evenodd" fill="#FFFFFF" d="M30.434,4.188
		c-0.262-2.24-0.799-2.894-1.178-3.192c-0.609-0.475-1.712-0.639-3.184-0.739C23.705,0.095,19.698,0,15.359,0
		C11.02,0,7.016,0.095,4.647,0.257c-1.471,0.1-2.575,0.264-3.183,0.739c-0.38,0.298-0.916,0.952-1.18,3.192
		c-0.379,3.229-0.379,10.589,0,13.819c0.264,2.238,0.8,2.893,1.18,3.189c0.608,0.478,1.712,0.642,3.183,0.743
		c2.368,0.158,6.372,0.255,10.712,0.255c4.342,0,8.346-0.097,10.713-0.255c1.472-0.102,2.574-0.266,3.184-0.743
		c0.379-0.297,0.916-0.951,1.178-3.189C30.814,14.777,30.814,7.417,30.434,4.188 M11.654,15.928L11.654,15.928V6.266l9.266,4.831
		L11.654,15.928z"/>
</g>
</svg>
