<?xml version="1.0" encoding="utf-8"?>
<!-- Generator: Adobe Illustrator 16.0.0, SVG Export Plug-In . SVG Version: 6.00 Build 0)  -->
<!DOCTYPE svg PUBLIC "-//W3C//DTD SVG 1.1//EN" "http://www.w3.org/Graphics/SVG/1.1/DTD/svg11.dtd">
<svg version="1.1" id="Layer_1" xmlns="http://www.w3.org/2000/svg" xmlns:xlink="http://www.w3.org/1999/xlink" x="0px" y="0px"
	 width="30.72px" height="30.72px" viewBox="0 0 30.72 30.72" enable-background="new 0 0 30.72 30.72" xml:space="preserve">
<g>
	<defs>
		<rect id="SVGID_1_" y="0" width="30.72" height="30.72"/>
	</defs>
	<clipPath id="SVGID_2_">
		<use xlink:href="#SVGID_1_"  overflow="visible"/>
	</clipPath>
	<path clip-path="url(#SVGID_2_)" fill-rule="evenodd" clip-rule="evenodd" fill="#FFFFFF" d="M24.773,0H5.946
		C2.676,0,0,2.675,0,5.945v18.828c0,3.271,2.676,5.946,5.946,5.946h18.828c3.271,0,5.946-2.676,5.946-5.946V5.945
		C30.72,2.675,28.045,0,24.773,0 M20.674,5.46L20.674,5.46c0-1.117,0.914-2.031,2.03-2.031h1.774c1.116,0,2.03,0.914,2.03,2.031
		v1.774c0,1.116-0.914,2.03-2.03,2.03h-1.774c-1.116,0-2.03-0.914-2.03-2.03V5.46z M15.36,10.881L15.36,10.881
		c2.921,0,5.289,2.369,5.289,5.292c0,2.921-2.368,5.29-5.289,5.29c-2.92,0-5.29-2.369-5.29-5.29
		C10.071,13.25,12.44,10.881,15.36,10.881 M28.243,24.773L28.243,24.773c0,1.912-1.557,3.468-3.47,3.468H5.946
		c-1.912,0-3.468-1.556-3.468-3.468V12.355h5.444c-0.589,1.145-0.923,2.441-0.923,3.817c0,4.616,3.744,8.36,8.362,8.36
		c4.618,0,8.362-3.744,8.362-8.36c0-1.376-0.335-2.672-0.923-3.817h5.443V24.773z"/>
</g>
</svg>
