<svg xmlns="http://www.w3.org/2000/svg" viewBox="0 1 82 25.23">
  <path d="M67.015,25.619c0.045,0.11,0.149,0.182,0.268,0.182h6.114   c0.141,0,0.217-0.091,0.242-0.13s0.08-0.145,0.023-0.272L62.761,1.541C62.502,1.02,62.502,1,61.929,1h-1.258   c-0.539,0-0.579,0-0.833,0.543l-8.685,18.948c-0.101,0.229-0.358,0.348-0.598,0.274l-0.002-0.001   c-0.239-0.071-0.315-0.304-0.285-0.552c0.046-0.354,0.068-0.712,0.068-1.07c0-1.494-0.334-2.742-0.991-3.711   c-0.428-0.635-1.028-1.152-1.784-1.542c-0.497-0.255-0.755-0.833-0.57-1.43c0.074-0.24,0.24-0.438,0.441-0.585   c0.34-0.251,0.627-0.537,0.857-0.851c0.713-0.973,1.072-2.162,1.072-3.535c0-1.663-0.492-3.013-1.506-4.131   c-1.004-1.105-2.418-1.641-4.324-1.641H31.875c-0.16,0-0.289,0.129-0.289,0.289v14.501c0,1.486-0.355,2.664-1.057,3.497   c-0.72,0.857-1.717,1.292-2.966,1.292c-1.259,0-2.264-0.441-2.985-1.312c-0.699-0.843-1.054-2.013-1.054-3.478V2.005   c0-0.159-0.128-0.289-0.288-0.289H0.289C0.129,1.716,0,1.846,0,2.005v4.696C0,6.86,0.129,6.989,0.289,6.989h6.276   c0.406,0,0.736,0.33,0.736,0.735v17.789c0,0.16,0.129,0.288,0.289,0.288h5.007c0.159,0,0.289-0.128,0.289-0.288V7.725   c0-0.407,0.329-0.736,0.736-0.736h3.598c0.406,0,0.735,0.33,0.735,0.735v8.428c0,1.183,0.197,2.566,0.587,4.113   c0.235,0.932,0.676,1.848,1.309,2.724c0.637,0.882,1.343,1.567,2.101,2.037c0.749,0.469,1.707,0.789,2.85,0.949   c1.172,0.166,2.275,0.251,3.276,0.251c1.699,0,3.164-0.268,4.354-0.795c0.84-0.373,1.66-1.027,2.436-1.947   c0.78-0.932,1.362-2.035,1.728-3.281c0.374-1.263,0.563-2.625,0.563-4.051v-0.069c0-0.394,0.319-0.712,0.713-0.711l0.068,0.001   h3.29c1.272,0,2.156,0.263,2.697,0.804c0.539,0.533,0.813,1.239,0.813,2.097c0,0.912-0.274,1.657-0.814,2.212   c-0.55,0.568-1.427,0.845-2.681,0.845l-3.669,0.007c-0.159,0-0.288,0.129-0.288,0.288v3.888c0,0.16,0.129,0.288,0.288,0.288h18.021   c0.117,0,0.224-0.071,0.268-0.181l5.218-11.958c0.128-0.287,0.572-0.285,0.698,0.001L67.015,25.619z M43.191,10.752   c-0.487,0.512-1.283,0.762-2.435,0.762l-2.865-0.004c-0.406,0-0.734-0.33-0.734-0.735V6.634c0-0.402,0.328-0.733,0.731-0.736   l2.909-0.018h0.002c1.119,0,1.9,0.246,2.388,0.75c0.479,0.493,0.721,1.171,0.721,2.016C43.908,9.546,43.666,10.254,43.191,10.752
M79.422,1.869h-6.671c-1.423,0-2.576,1.154-2.576,2.577v6.67   c0,1.423,1.153,2.577,2.577,2.577h6.671c1.423,0,2.576-1.153,2.576-2.576V4.446C82,3.022,80.845,1.869,79.422,1.869 M79.48,11.513   c0,0.355-0.287,0.642-0.642,0.642h-0.73c-0.354,0-0.643-0.287-0.643-0.642V6.874c0-0.355-0.287-0.643-0.642-0.642l-1.518,0.002   c-0.354,0-0.642,0.288-0.642,0.642v4.637c0,0.355-0.287,0.642-0.642,0.642h-0.73c-0.354,0-0.642-0.287-0.642-0.642V5.9   c0-0.17-0.067-0.333-0.188-0.453L72.11,5.093c-0.251-0.251-0.251-0.658,0-0.908l0.516-0.516c0.252-0.25,0.658-0.25,0.908,0   l0.358,0.358c0.12,0.121,0.282,0.188,0.453,0.188l4.493,0.004c0.354,0,0.642,0.288,0.642,0.642V11.513z" fill="#ffffff"/>
</svg>