<?xml version="1.0" encoding="utf-8"?>
<!-- Generator: Adobe Illustrator 16.0.0, SVG Export Plug-In . SVG Version: 6.00 Build 0)  -->
<!DOCTYPE svg PUBLIC "-//W3C//DTD SVG 1.1//EN" "http://www.w3.org/Graphics/SVG/1.1/DTD/svg11.dtd">
<svg version="1.1" id="Layer_1" xmlns="http://www.w3.org/2000/svg" xmlns:xlink="http://www.w3.org/1999/xlink" x="0px" y="0px"
	 width="24px" height="13px" viewBox="0 0 24 13" enable-background="new 0 0 24 13" xml:space="preserve">
<g>
	<path fill-rule="evenodd" clip-rule="evenodd" fill="#f97290" d="M18.23,1.317l4.242,4.243c0.586,0.586,0.586,1.535,0,2.121
		s-1.535,0.586-2.121,0l-4.242-4.242c-0.586-0.586-0.586-1.536,0-2.122C16.695,0.732,17.645,0.732,18.23,1.317z"/>
	<path fill-rule="evenodd" clip-rule="evenodd" fill="#f97290" d="M22.473,5.561c0.586,0.586,0.586,1.535,0,2.121l-4.242,4.243
		c-0.586,0.585-1.535,0.585-2.121,0c-0.586-0.586-0.586-1.536,0-2.122l4.242-4.242C20.938,4.975,21.887,4.975,22.473,5.561z"/>
	<path fill-rule="evenodd" clip-rule="evenodd" fill="#f97290" d="M1.67,5.121h18c0.553,0,1,0.447,1,1v1c0,0.553-0.447,1-1,1h-18
		c-0.552,0-1-0.447-1-1v-1C0.67,5.568,1.118,5.121,1.67,5.121z"/>
</g>
</svg>
