<?xml version="1.0" encoding="utf-8"?>
<!-- Generator: Adobe Illustrator 16.0.0, SVG Export Plug-In . SVG Version: 6.00 Build 0)  -->
<!DOCTYPE svg PUBLIC "-//W3C//DTD SVG 1.1//EN" "http://www.w3.org/Graphics/SVG/1.1/DTD/svg11.dtd">
<svg version="1.1" id="Layer_1" xmlns="http://www.w3.org/2000/svg" xmlns:xlink="http://www.w3.org/1999/xlink" x="0px" y="0px"
	 width="1373.581px" height="74.925px" viewBox="0 0 1373.581 74.925" enable-background="new 0 0 1373.581 74.925"
	 xml:space="preserve">
<g>
	<g>
		<path fill="#FFFFFF" d="M49.395,36.729c7.299-2.1,11.899-8,11.899-15.099c0-10.799-10.499-17.698-26.897-17.698H0v70.093h35.896
			c16.798,0,27.597-7.6,27.597-19.599C63.494,45.528,57.995,38.528,49.395,36.729z M20.698,19.53h12.599c4.1,0,6.699,2.2,6.699,5.8
			c0,3.7-2.6,6.099-6.699,6.099H20.698V19.53z M33.297,58.526H20.698V45.628h12.599c5.299,0,8.599,2.399,8.599,6.199
			C41.896,55.927,38.596,58.526,33.297,58.526z M71.999,74.025h20.798V3.932H71.999V74.025z M139.594,20.63
			c6.099,0,13.099,3,17.898,7.599l11.799-14.298c-7.399-6.5-18.898-10.599-29.597-10.599c-22.598,0-39.096,15.199-39.096,35.696
			c0,20.599,15.999,35.896,37.696,35.896c10,0,22.398-3.799,29.997-8.999V37.729h-17.898v17.098c-3.8,1.7-7.699,2.7-10.599,2.7
			c-10.199,0-17.898-7.8-17.898-18.499C121.896,28.53,129.495,20.63,139.594,20.63z M227.593,19.331
			c5.899,0,16.099,3.7,23.298,7.799l7.699-15.999c-7.599-4.899-18.598-8.099-29.297-8.099c-17.498,0-28.997,8.599-28.997,22.098
			c0,24.697,36.596,17.998,36.596,28.598c0,3.199-2.799,4.699-7.199,4.699c-7.199,0-18.898-4.6-26.097-10.699l-7.799,15.799
			c8.799,6.899,21.798,11.099,33.697,11.099c15.698,0,28.897-7.1,28.897-21.998c0-25.297-36.596-19.198-36.596-29.497
			C221.794,20.53,224.094,19.331,227.593,19.331z M305.192,42.729L288.293,3.932h-22.298v70.093h18.298V32.529l14.099,34.597h13.599
			l14.099-34.597l0.1,41.496h18.198V3.932H322.09L305.192,42.729z M356.195,74.025h20.798V3.932h-20.798V74.025z M409.592,3.932
			h-20.798v70.093h50.195V56.627h-29.397V3.932z M466.991,46.928h33.097V30.929h-33.097V19.931h36.497V3.932h-57.294v70.093h58.294
			V58.026h-37.497V46.928z M536.392,74.025h20.798V49.928h31.197V33.929H557.19V19.931h33.597V3.932h-54.395V74.025z M632.488,3.332
			c-21.998,0-38.196,14.999-38.196,35.597c0,20.698,16.198,35.996,38.196,35.996c21.998,0,38.196-15.398,38.196-35.996
			C670.684,18.431,654.485,3.332,632.488,3.332z M632.788,57.527c-9.199,0-17.198-7.899-17.198-18.499
			c0-10.599,7.899-18.298,17.198-18.298c9.199,0,16.599,7.699,16.599,18.298C649.386,49.628,641.987,57.527,632.788,57.527z
			 M740.784,28.83c0-15.898-10.799-24.897-29.597-24.897H678.49v70.093h20.798V55.127h10.999l9.299,18.898h23.598l-14.198-22.897
			C736.583,46.828,740.784,39.229,740.784,28.83z M711.187,39.129h-11.899V19.931h11.899c6.199,0,9.799,3.399,9.799,9.499
			C720.986,35.729,717.386,39.129,711.187,39.129z M793.686,46.928h33.097V30.929h-33.097V19.931h36.497V3.932h-57.295v70.093
			h58.294V58.026h-37.496V46.928z M873.185,52.428L857.186,3.932h-22.197l26.797,70.093h21.599l27.097-70.093h-21.298
			L873.185,52.428z M936.785,46.928h33.097V30.929h-33.097V19.931h36.496V3.932h-57.294v70.093h58.294V58.026h-37.496V46.928z
			 M1046.581,28.83c0-15.898-10.799-24.897-29.598-24.897h-32.696v70.093h20.798V55.127h10.999l9.299,18.898h23.598l-14.198-22.897
			C1042.38,46.828,1046.581,39.229,1046.581,28.83z M1016.983,39.129h-11.898V19.931h11.898c6.2,0,9.8,3.399,9.8,9.499
			C1026.783,35.729,1023.183,39.129,1016.983,39.129z M1088.183,32.529l-15.299-28.597h-20.798l25.697,48.295v21.798h20.798V51.827
			l25.197-47.895h-20.697L1088.183,32.529z M1163.182,3.332c-21.998,0-38.196,14.999-38.196,35.597
			c0,20.698,16.198,35.996,38.196,35.996c21.997,0,38.196-15.398,38.196-35.996C1201.378,18.431,1185.179,3.332,1163.182,3.332z
			 M1163.482,57.527c-9.199,0-17.198-7.899-17.198-18.499c0-10.599,7.899-18.298,17.198-18.298c9.199,0,16.598,7.699,16.598,18.298
			C1180.08,49.628,1172.681,57.527,1163.482,57.527z M1256.679,43.128l-29.697-39.196h-17.798v70.093h19.098V35.029l29.697,38.997
			h17.698V3.932h-18.998V43.128z M1308.281,46.928h33.097V30.929h-33.097V19.931h36.496V3.932h-57.294v70.093h58.294V58.026h-37.496
			V46.928z M1354.382,4.132V22.33l3.6,26.697h12.1l3.499-26.697V4.132H1354.382z M1363.582,56.027c-5.499,0-9.398,3.8-9.398,9.299
			c0,5.6,3.899,9.499,9.398,9.499c5.6,0,9.499-3.899,9.499-9.499C1373.081,59.827,1369.181,56.027,1363.582,56.027z"/>
	</g>
</g>
</svg>
